<svg width="24" height="24" viewBox="0 0 24 24" fill="none" xmlns="http://www.w3.org/2000/svg">
<path fill-rule="evenodd" clip-rule="evenodd" d="M22.6155 12.1679C22.6155 11.3497 22.5421 10.563 22.4057 9.80774H11.5386V14.271H17.7484C17.4809 15.7133 16.6679 16.9354 15.4459 17.7535V20.6486H19.1749C21.3568 18.6399 22.6155 15.6819 22.6155 12.1679Z" fill="#4285F4"/>
<path fill-rule="evenodd" clip-rule="evenodd" d="M11.5382 23.4441C14.6536 23.4441 17.2655 22.4109 19.1746 20.6486L15.4456 17.7535C14.4124 18.4458 13.0907 18.8549 11.5382 18.8549C8.53299 18.8549 5.98929 16.8252 5.08195 14.0979H1.22705V17.0874C3.12565 20.8584 7.02775 23.4441 11.5382 23.4441Z" fill="#34A853"/>
<path fill-rule="evenodd" clip-rule="evenodd" d="M5.08217 14.0979C4.8514 13.4056 4.72028 12.6661 4.72028 11.9056C4.72028 11.1451 4.8514 10.4056 5.08217 9.7133V6.72379H1.22727C0.445804 8.28148 0 10.0437 0 11.9056C0 13.7675 0.445804 15.5297 1.22727 17.0874L5.08217 14.0979Z" fill="#FBBC05"/>
<path fill-rule="evenodd" clip-rule="evenodd" d="M11.5382 4.95632C13.2323 4.95632 14.7533 5.53849 15.9491 6.68184L19.2585 3.3724C17.2603 1.51051 14.6484 0.367157 11.5382 0.367157C7.02775 0.367157 3.12565 2.95282 1.22705 6.7238L5.08195 9.71331C5.98929 6.98604 8.53299 4.95632 11.5382 4.95632Z" fill="#EA4335"/>
</svg>
